<svg width="35" height="35" viewBox="0 0 35 35" fill="none" xmlns="http://www.w3.org/2000/svg">
<path d="M29.6918 18.5643C29.1522 18.5643 28.7001 18.1559 28.6418 17.6163C28.2918 14.408 26.5709 11.5205 23.9168 9.68301C23.4355 9.34759 23.3188 8.69135 23.6543 8.2101C23.9897 7.72885 24.6459 7.61218 25.1272 7.94759C28.2918 10.1497 30.3334 13.5913 30.7563 17.3976C30.8147 17.9809 30.3918 18.5059 29.8084 18.5643C29.7647 18.5643 29.7355 18.5643 29.6918 18.5643Z" fill="#7B7B7D"/>
<path d="M5.4543 18.6377C5.42514 18.6377 5.38139 18.6377 5.35222 18.6377C4.76889 18.5793 4.34597 18.0543 4.4043 17.471C4.79805 13.6648 6.81055 10.2231 9.94597 8.00642C10.4126 7.671 11.0835 7.78767 11.4189 8.25434C11.7543 8.73559 11.6376 9.39184 11.171 9.72726C8.54597 11.5939 6.83972 14.4814 6.51889 17.6752C6.46055 18.2293 5.99389 18.6377 5.4543 18.6377Z" fill="#7B7B7D"/>
<path d="M23.3187 30.7712C21.525 31.6316 19.6 32.0691 17.5875 32.0691C15.4875 32.0691 13.4895 31.6024 11.6229 30.6545C11.0979 30.4066 10.8937 29.7649 11.1562 29.2399C11.4041 28.7149 12.0458 28.5107 12.5708 28.7587C13.4895 29.2253 14.4666 29.5462 15.4583 29.7357C16.8 29.9982 18.1708 30.0128 19.5125 29.7795C20.5041 29.6045 21.4812 29.2982 22.3854 28.8607C22.925 28.6128 23.5666 28.817 23.8 29.3566C24.0625 29.8816 23.8583 30.5232 23.3187 30.7712Z" fill="#7B7B7D"/>
<path d="M17.5729 2.93103C15.3125 2.93103 13.4604 4.76853 13.4604 7.04353C13.4604 9.31853 15.298 11.156 17.5729 11.156C19.8479 11.156 21.6854 9.31853 21.6854 7.04353C21.6854 4.76853 19.8479 2.93103 17.5729 2.93103Z" fill="#7B7B7D"/>
<path d="M7.36445 20.2272C5.10404 20.2272 3.25195 22.0647 3.25195 24.3397C3.25195 26.6147 5.08945 28.4522 7.36445 28.4522C9.63945 28.4522 11.477 26.6147 11.477 24.3397C11.477 22.0647 9.62487 20.2272 7.36445 20.2272Z" fill="#7B7B7D"/>
<path d="M27.6352 20.2272C25.3748 20.2272 23.5227 22.0647 23.5227 24.3397C23.5227 26.6147 25.3602 28.4522 27.6352 28.4522C29.9102 28.4522 31.7477 26.6147 31.7477 24.3397C31.7477 22.0647 29.9102 20.2272 27.6352 20.2272Z" fill="#7B7B7D"/>
</svg>
