<svg width="35" height="35" viewBox="0 0 35 35" fill="none" xmlns="http://www.w3.org/2000/svg">
<path d="M28.8604 6.15442C24.5437 1.85234 17.5437 1.85234 13.2562 6.15442C10.2374 9.144 9.33328 13.4461 10.4999 17.2378L3.64578 24.0919C3.16453 24.5878 2.82912 25.5648 2.9312 26.2648L3.3687 29.444C3.52912 30.494 4.5062 31.4857 5.5562 31.6315L8.73537 32.069C9.43537 32.1711 10.4124 31.8503 10.9083 31.3398L12.1041 30.144C12.3958 29.8669 12.3958 29.4003 12.1041 29.1086L9.27495 26.2794C8.85203 25.8565 8.85203 25.1565 9.27495 24.7336C9.69787 24.3107 10.3979 24.3107 10.8208 24.7336L13.6645 27.5773C13.9416 27.8544 14.4083 27.8544 14.6854 27.5773L17.777 24.5003C21.5541 25.6815 25.8562 24.7628 28.8604 21.7732C33.1625 17.4711 33.1625 10.4565 28.8604 6.15442ZM21.1458 17.5003C19.1333 17.5003 17.4999 15.8669 17.4999 13.8544C17.4999 11.8419 19.1333 10.2086 21.1458 10.2086C23.1583 10.2086 24.7916 11.8419 24.7916 13.8544C24.7916 15.8669 23.1583 17.5003 21.1458 17.5003Z" fill="#7B7B7D"/>
</svg>
