<svg width="35" height="35" viewBox="0 0 35 35" fill="none" xmlns="http://www.w3.org/2000/svg">
<path d="M23.6105 2.91663H11.3897C6.08133 2.91663 2.91675 6.08121 2.91675 11.3895V23.6104C2.91675 27.7083 4.798 30.5229 8.10842 31.5875C9.07092 31.9229 10.1792 32.0833 11.3897 32.0833H23.6105C24.8209 32.0833 25.9293 31.9229 26.8918 31.5875C30.2022 30.5229 32.0834 27.7083 32.0834 23.6104V11.3895C32.0834 6.08121 28.9188 2.91663 23.6105 2.91663ZM29.8959 23.6104C29.8959 26.7312 28.6709 28.7 26.2063 29.5166C24.7917 26.7312 21.4376 24.7479 17.5001 24.7479C13.5626 24.7479 10.223 26.7166 8.79383 29.5166H8.77925C6.34383 28.7291 5.10425 26.7458 5.10425 23.625V11.3895C5.10425 7.27704 7.27717 5.10413 11.3897 5.10413H23.6105C27.723 5.10413 29.8959 7.27704 29.8959 11.3895V23.6104Z" fill="#7B7B7D"/>
<path d="M17.5001 11.6666C14.6126 11.6666 12.2793 14 12.2793 16.8875C12.2793 19.775 14.6126 22.1229 17.5001 22.1229C20.3876 22.1229 22.721 19.775 22.721 16.8875C22.721 14 20.3876 11.6666 17.5001 11.6666Z" fill="#7B7B7D"/>
</svg>
